<svg width="70" height="28" viewBox="0 0 70 28" fill="none" xmlns="http://www.w3.org/2000/svg">
<rect width="70" height="28" fill="#191919"/>
<path fill-rule="evenodd" clip-rule="evenodd" d="M69.5 0.5H0.5V27.5H69.5V0.5ZM0 0V28H70V0H0Z" fill="white" fill-opacity="0.7"/>
<path fill-rule="evenodd" clip-rule="evenodd" d="M19.3333 11.3333L17.3333 11.3333L17.3333 10.14C17.3333 8.39997 16.06 6.84664 14.3267 6.67997C12.34 6.4933 10.6667 8.0533 10.6667 9.99997L10.6667 11.3333L8.66667 11.3333L8.66667 20.6666L19.3333 20.6666L19.3333 11.3333ZM14 17.3333C13.2667 17.3333 12.6667 16.7333 12.6667 16C12.6667 15.2666 13.2667 14.6666 14 14.6666C14.7333 14.6666 15.3333 15.2666 15.3333 16C15.3333 16.7333 14.7333 17.3333 14 17.3333ZM12 11.3333L12 9.99997C12 8.8933 12.8933 7.99997 14 7.99997C15.1067 7.99997 16 8.8933 16 9.99997L16 11.3333L12 11.3333Z" fill="white" fill-opacity="0.9"/>
<path d="M31.162 19V9.2H33.206V13.134H37.378V9.2H39.422V19H37.378V14.898H33.206V19H31.162ZM41.744 19V9.2H45.65C46.6394 9.2 47.47 9.39133 48.142 9.774C48.8234 10.1567 49.3367 10.6933 49.682 11.384C50.0367 12.0747 50.214 12.8867 50.214 13.82V14.366C50.214 15.8033 49.822 16.9373 49.038 17.768C48.254 18.5893 47.1247 19 45.65 19H41.744ZM43.788 17.236H45.594C46.4247 17.236 47.0594 17.0073 47.498 16.55C47.946 16.0833 48.17 15.3693 48.17 14.408V13.778C48.17 12.854 47.946 12.154 47.498 11.678C47.0594 11.202 46.4247 10.964 45.594 10.964H43.788V17.236ZM52.1073 19V9.2H55.8173C56.956 9.2 57.8566 9.466 58.5193 9.998C59.1913 10.53 59.5273 11.2673 59.5273 12.21V12.476C59.5273 13.1387 59.364 13.6987 59.0373 14.156C58.72 14.6133 58.272 14.9587 57.6933 15.192L59.8353 19H57.6093L55.6773 15.5H54.1513V19H52.1073ZM54.1513 13.736H55.7613C56.256 13.736 56.6666 13.6427 56.9933 13.456C57.32 13.2693 57.4833 12.9567 57.4833 12.518V12.168C57.4833 11.748 57.32 11.4447 56.9933 11.258C56.6666 11.062 56.256 10.964 55.7613 10.964H54.1513V13.736Z" fill="white" fill-opacity="0.9"/>
</svg>
