<?xml version="1.0" encoding="utf-8"?>
<!-- Generator: Adobe Illustrator 21.1.0, SVG Export Plug-In . SVG Version: 6.00 Build 0)  -->
<svg version="1.1" id="Layer_3" xmlns="http://www.w3.org/2000/svg" xmlns:xlink="http://www.w3.org/1999/xlink" x="0px" y="0px"
	 viewBox="0 0 331.51 48" style="enable-background:new 0 0 331.51 48;" xml:space="preserve">
<style type="text/css">
	.st0{fill:#5F5F5E;}
</style>
<g>
	<g>
		<path id="Eye_Mark_5_" class="st0" d="M29.81,19.24v-2.13c0.21-0.01,0.42-0.03,0.63-0.03c5.83-0.18,9.66,5.01,9.66,5.01
			s-4.13,5.74-8.56,5.74c-0.64,0-1.21-0.1-1.72-0.28v-6.46c2.27,0.27,2.73,1.28,4.09,3.55l3.04-2.56c0,0-2.22-2.91-5.95-2.91
			C30.58,19.17,30.19,19.2,29.81,19.24 M29.81,12.2v3.18c0.21-0.02,0.42-0.03,0.63-0.04C38.55,15.07,43.83,22,43.83,22
			s-6.07,7.38-12.39,7.38c-0.58,0-1.12-0.05-1.63-0.14v1.97c0.44,0.06,0.89,0.09,1.36,0.09c5.88,0,10.14-3,14.26-6.56
			c0.68,0.55,3.48,1.88,4.05,2.46c-3.92,3.28-13.05,5.92-18.22,5.92c-0.5,0-0.98-0.03-1.45-0.08v2.77h22.36V12.2H29.81z
			 M29.81,27.55v1.68c-5.44-0.97-6.95-6.63-6.95-6.63s2.61-2.89,6.95-3.36v1.84c0,0-0.01,0-0.01,0c-2.28-0.27-4.06,1.85-4.06,1.85
			S26.74,26.52,29.81,27.55 M20.14,22.36c0,0,3.23-4.76,9.66-5.25v-1.73C22.68,15.96,16.5,22,16.5,22S20,32.11,29.81,33.03V31.2
			C22.61,30.29,20.14,22.36,20.14,22.36z"/>
		<path id="NVIDIA_5_" class="st0" d="M92.45,16.66l0,15.49h4.38V16.66L92.45,16.66z M58.03,16.64v15.51h4.41V20.37l3.42,0
			c1.13,0,1.94,0.28,2.49,0.86c0.69,0.74,0.97,1.93,0.97,4.1v6.81l4.28,0l0-8.57c0-6.12-3.9-6.94-7.71-6.94H58.03 M99.5,16.66v15.49
			h7.1c3.78,0,5.02-0.63,6.35-2.04c0.94-0.99,1.55-3.16,1.55-5.54c0-2.18-0.52-4.12-1.42-5.33c-1.62-2.16-3.96-2.59-7.44-2.59H99.5z
			 M103.84,20.03h1.88c2.73,0,4.49,1.23,4.49,4.41c0,3.18-1.77,4.41-4.49,4.41h-1.88V20.03z M86.14,16.66l-3.65,12.28l-3.5-12.28
			l-4.72,0l5,15.49h6.31l5.04-15.49H86.14z M116.53,32.15h4.38V16.66l-4.38,0L116.53,32.15z M128.8,16.67l-6.11,15.48H127l0.97-2.74
			h7.23l0.92,2.74h4.68l-6.16-15.48L128.8,16.67z M131.64,19.49l2.65,7.25h-5.38L131.64,19.49z"/>
		<g>
			<g>
				<path class="st0" d="M142.76,32.84c-0.6,0-1.08-0.48-1.08-1.08c0-0.6,0.48-1.08,1.08-1.08c0.6,0,1.08,0.48,1.08,1.08
					C143.84,32.36,143.35,32.84,142.76,32.84z M142.76,30.89c-0.48,0-0.86,0.37-0.86,0.87c0,0.5,0.37,0.87,0.86,0.87
					c0.48,0,0.86-0.37,0.86-0.87C143.61,31.26,143.24,30.89,142.76,30.89z M142.95,32.33l-0.21-0.44h-0.12v0.44h-0.26v-1.15h0.47
					c0.23,0,0.38,0.17,0.38,0.36c0,0.16-0.1,0.26-0.21,0.3l0.24,0.48H142.95z M142.8,31.4h-0.18v0.3h0.18c0.1,0,0.16-0.07,0.16-0.15
					S142.89,31.4,142.8,31.4z"/>
			</g>
		</g>
	</g>
	<g>
		<g>
			<path class="st0" d="M261.94,16.63l7,10.29V16.63h3v15.49h-3.09l-7-10.27v10.27h-3V16.63H261.94z"/>
			<path class="st0" d="M274.54,19.25c0-1.43,1.16-2.59,2.57-2.59h7.77c1.41,0,2.57,1.16,2.57,2.59v10.33
				c0,1.43-1.16,2.57-2.57,2.57h-7.77c-1.41,0-2.57-1.14-2.57-2.57V19.25z M283.68,29.4c0.43,0,0.77-0.34,0.77-0.77V20.2
				c0-0.43-0.34-0.8-0.77-0.8h-5.36c-0.43,0-0.77,0.36-0.77,0.8v8.43c0,0.43,0.34,0.77,0.77,0.77H283.68z"/>
			<path class="st0" d="M298.47,16.66h2.54l3.2,10.55l2.84-10.55h3.08l-4.67,15.49h-2.63l-3.15-9.98l-2.97,9.98h-2.63l-4.97-15.49
				h3.36l3.02,10.55L298.47,16.66z"/>
			<g>
				<path class="st0" d="M156.35,19.25c0-1.43,1.16-2.59,2.59-2.59h9.81v2.79h-8.56c-0.43,0-0.8,0.36-0.8,0.77v7.27
					c0,0.2,0.09,0.41,0.23,0.54l1.09,1.09c0.16,0.16,0.34,0.23,0.57,0.23h4.16c0.43,0,0.77-0.34,0.77-0.77v-2.79h-3.66V23h6.72v6.59
					c0,1.41-1.16,2.57-2.59,2.57h-6.91c-0.2,0-0.41-0.07-0.57-0.23l-2.64-2.63c-0.14-0.14-0.23-0.34-0.23-0.55V19.25z"/>
				<path class="st0" d="M174.96,19.41v3.63h6.29v2.75h-6.29v3.61h7.84v2.75h-10.86V16.66h10.86v2.75H174.96z"/>
				<path class="st0" d="M188.07,32.15h-3.02V16.66h10.86v2.75h-7.84v3.63h6.29v2.75h-6.29V32.15z"/>
				<path class="st0" d="M198.05,19.25c0-1.43,1.16-2.59,2.57-2.59h7.77c1.41,0,2.57,1.16,2.57,2.59v10.33
					c0,1.43-1.16,2.57-2.57,2.57h-7.77c-1.41,0-2.57-1.14-2.57-2.57V19.25z M207.18,29.4c0.43,0,0.77-0.34,0.77-0.77V20.2
					c0-0.43-0.34-0.79-0.77-0.79h-5.36c-0.43,0-0.77,0.36-0.77,0.79v8.43c0,0.43,0.34,0.77,0.77,0.77H207.18z"/>
				<path class="st0" d="M226.42,32.15h-3.25l-3.82-6.31h-2.84v6.31h-3V16.66h9.29c1.43,0,2.59,1.16,2.59,2.59v4
					c0,1.43-1.16,2.59-2.59,2.59h-0.18L226.42,32.15z M216.51,23.09h5.04c0.43,0,0.77-0.34,0.77-0.77V20.2
					c0-0.43-0.34-0.79-0.77-0.79h-5.04V23.09z"/>
				<path class="st0" d="M238.36,19.41h-6.56c-0.43,0-0.77,0.36-0.77,0.77v8.45c0,0.43,0.34,0.77,0.77,0.77h6.56v2.75h-7.75
					c-1.43,0-2.59-1.16-2.59-2.57V19.25c0-1.43,1.16-2.59,2.59-2.59h7.75V19.41z"/>
				<path class="st0" d="M243.86,19.41v3.63h6.29v2.75h-6.29v3.61h7.84v2.75h-10.86V16.66h10.86v2.75H243.86z"/>
			</g>
		</g>
		<g>
			<path class="st0" d="M312.97,16.63v0.22h-0.61v1.66h-0.24v-1.66h-0.58v-0.22H312.97z M314.76,16.63h0.25v1.87h-0.24v-1.46
				l-0.55,0.93h-0.2l-0.51-0.89v1.41h-0.25v-1.87h0.23l0.63,1.09L314.76,16.63z"/>
		</g>
	</g>
</g>
</svg>
