<?xml version="1.0" encoding="UTF-8"?>
<svg width="120px" height="25px" viewBox="0 0 120 25" version="1.1" xmlns="http://www.w3.org/2000/svg" xmlns:xlink="http://www.w3.org/1999/xlink">
    <title>Logo_GFN_Lockup</title>
    <defs>
        <polygon id="path-1" points="1.05216622e-05 0.100585253 12.9553332 0.100585253 12.9553332 8.74940138 1.05216622e-05 8.74940138"></polygon>
    </defs>
    <g id="Logo_GFN_Lockup" stroke="none" stroke-width="1" fill="none" fill-rule="evenodd">
        <g id="Group-30" transform="translate(0.000000, 1.000000)">
            <polygon id="Fill-1" fill="#FFFFFF" points="85.7084414 12 85.7084414 19.307011 80.3599996 12 78 12 78 23 80.2915586 23 80.2915586 15.7093977 85.6387862 23 88 23 88 12"></polygon>
            <g id="Group-29">
                <path d="M96.1185937,20.9776217 C96.4259315,20.9804834 96.6775044,20.731935 96.6805,20.42223 L96.6805,20.4115249 L96.6805,14.2270687 C96.6845539,13.9099442 96.4331914,13.6492069 96.1185937,13.6441194 L92.2097962,13.6441194 C91.8945672,13.6487829 91.6427838,13.9095203 91.6468378,14.2270687 L91.6468378,20.4126908 C91.6445725,20.7229258 91.8922524,20.9762438 92.2002215,20.9786816 L92.2097962,20.9786816 L96.1185937,20.9776217 Z M89.4657438,13.5263636 C89.463958,12.4823544 90.3000093,11.6329442 91.3364982,11.6260548 L96.9950482,11.6260548 C98.0313267,11.6329442 98.8670623,12.4825664 98.8647524,13.5263636 L98.8647524,21.1164696 C98.8657997,22.1553912 98.0306954,22.9986539 96.9991516,22.9998198 L96.9950482,22.9998198 L91.3333417,22.9998198 C90.3012719,22.9992899 89.4651154,22.1560272 89.4657438,21.1164696 L89.4657438,13.5263636 Z" id="Fill-2" fill="#FFFFFF"></path>
                <polygon id="Fill-4" fill="#FFFFFF" points="106.893733 11.6260124 108.744599 11.6260124 111.074095 19.3633396 113.139392 11.6260124 115.386924 11.6260124 111.982009 22.9945839 110.065068 22.9945839 107.773344 15.6706207 105.609038 22.9945839 103.691992 22.9945839 100.073697 11.6260124 102.512513 11.6260124 104.710488 19.3633396"></polygon>
                <path d="M3.36274394,13.5275295 C3.362113,12.4785387 4.20584509,11.6276447 5.24717401,11.6271147 L5.24927834,11.6271147 L12.3966435,11.6271147 L12.3966435,13.6768705 L6.15940212,13.6768705 C5.84648789,13.6789903 5.59091671,13.9290226 5.57965853,14.2440272 L5.57965853,19.5774834 C5.58165765,19.7273544 5.64078939,19.8708659 5.74484863,19.9780226 L6.53923413,20.778253 C6.64760725,20.8899673 6.79775137,20.950382 6.95273546,20.9446585 L9.98086985,20.9446585 C10.2894702,20.9470963 10.541464,20.6970641 10.5437788,20.3861931 L10.5437788,20.3777138 L10.5437788,18.3278521 L7.8796939,18.3278521 L7.8796939,16.2778843 L12.7775277,16.2778843 L12.7775277,21.1164696 C12.7711095,22.1601608 11.9282191,23.0022576 10.8920458,22.9998198 L5.86163908,22.9998198 C5.70707586,23.0029995 5.55798391,22.9430088 5.44813775,22.8335203 L3.52793439,20.9002484 C3.42398037,20.7928797 3.36484863,20.6494742 3.36274394,20.4994972 L3.36274394,13.5275295 Z" id="Fill-6" fill="#FFFFFF"></path>
                <polygon id="Fill-8" fill="#FFFFFF" points="16.9156974 13.644077 16.9156974 16.3108051 21.495777 16.3108051 21.495777 18.32463 16.9156974 18.32463 16.9156974 20.9743995 22.6247514 20.9743995 22.6247514 22.9882244 14.7156179 22.9882244 14.7156179 11.6270724 22.6247514 11.6270724 22.6247514 13.6408972"></polygon>
                <polygon id="Fill-10" fill="#FFFFFF" points="26.4682725 22.9945521 24.2681929 22.9945521 24.2681929 11.6270406 32.1773264 11.6270406 32.1773264 13.6408654 26.4682725 13.6408654 26.4682725 16.3075935 31.0515086 16.3075935 31.0515086 18.3214184 26.4682725 18.3214184"></polygon>
                <path d="M40.3905676,20.9776461 C40.6985366,20.9804834 40.9505304,20.7314051 40.953512,20.42117 C40.953512,20.4179903 40.953512,20.4147046 40.953512,20.4115249 L40.953512,14.2270687 C40.9569486,13.9097323 40.7054809,13.6493129 40.3905676,13.6441194 L36.4859787,13.6441194 C36.1710653,13.6493129 35.9194924,13.9097323 35.9230321,14.2270687 L35.9230321,20.4115249 C35.920755,20.7218659 36.1685401,20.9752899 36.476404,20.9776461 L36.4859787,20.9776461 L40.3905676,20.9776461 Z M33.7387679,13.5275295 C33.7364579,12.4835203 34.5721935,11.6341101 35.6084721,11.6271147 L41.2680742,11.6271147 C42.3043527,11.6341101 43.1400883,12.4835203 43.1377784,13.5275295 L43.1377784,21.1164696 C43.1382996,22.1560272 42.3021431,22.9992899 41.2701785,22.9998202 L41.2680742,22.9998202 L35.6084721,22.9998202 C34.5764022,23.0004558 33.739404,22.158147 33.7387679,21.1184834 L33.7387679,21.1164696 L33.7387679,13.5275295 Z" id="Fill-12" fill="#FFFFFF"></path>
                <path d="M47.1896762,16.3468581 L50.8638407,16.3468581 C51.1718097,16.3491737 51.4233827,16.0995654 51.4257331,15.7893304 C51.4257331,15.7861507 51.4257331,15.782971 51.4257331,15.7797912 L51.4257331,14.2270263 C51.4291696,13.9102198 51.1783332,13.6499065 50.8638407,13.644077 L47.1896762,13.644077 L47.1896762,16.3468581 Z M54.40438,22.9945839 L52.0380582,22.9945839 L49.258235,18.3606668 L47.1896762,18.3606668 L47.1896762,22.9945839 L45.0053791,22.9945839 L45.0053791,11.627072 L51.7729123,11.627072 C52.8142412,11.6264364 53.658815,12.4763765 53.6594463,13.5253673 L53.6594463,13.5274871 L53.6594463,16.461312 C53.6594463,17.5103028 52.8152934,18.3606668 51.7739645,18.3606668 L51.7729123,18.3606668 L51.6413915,18.3606668 L54.40438,22.9945839 Z" id="Fill-14" fill="#FFFFFF"></path>
                <path d="M63.1036904,13.644077 L58.3215949,13.644077 C58.012258,13.6474687 57.762579,13.8995147 57.7597381,14.2111276 L57.7597381,20.4115885 C57.756792,20.7211876 58.0036302,20.9746115 58.310968,20.9775793 L58.3215949,20.9775793 L63.1036904,20.9775793 L63.1036904,22.9914095 L57.4609229,22.9914095 C56.4280113,22.9938419 55.5863836,22.1568327 55.5754407,21.1164272 L55.5754407,13.5274871 C55.5748097,12.4784963 56.4185418,11.6277083 57.4598707,11.6270724 L57.4609229,11.6270724 L63.1036904,11.6270724 L63.1036904,13.644077 Z" id="Fill-16" fill="#FFFFFF"></path>
                <polygon id="Fill-18" fill="#FFFFFF" points="67.1092135 13.644077 67.1092135 16.3108051 71.6925548 16.3108051 71.6925548 18.32463 67.1092135 18.32463 67.1092135 20.9743995 72.8183727 20.9743995 72.8183727 22.9882244 64.9092392 22.9882244 64.9092392 11.6270724 72.8183727 11.6270724 72.8183727 13.6408972"></polygon>
                <g id="Group-22">
                    <mask id="mask-2" fill="white">
                        <use xlink:href="#path-1"></use>
                    </mask>
                    <g id="Clip-21"></g>
                    <path d="M1.32679213,3.82082995 C2.17325986,2.70623088 3.45090531,2.00743364 4.83997515,1.89921705 L4.83997515,1.26327235 C2.24743758,1.47525392 1.05216622e-05,3.68516175 1.05216622e-05,3.68516175 C1.05216622e-05,3.68516175 1.27207949,7.38741982 4.83997515,7.72659032 L4.83997515,7.05460876 C2.22323775,6.72603733 1.32679213,3.82082995 1.32679213,3.82082995 L1.32679213,3.82082995 Z M4.83471432,5.72230461 L4.83471432,6.33811106 C2.85664182,5.98304194 2.30951538,3.91198203 2.30951538,3.91198203 C2.98984607,3.22717558 3.87945261,2.7933553 4.83471432,2.68036912 L4.83471432,3.35553041 C4.0066595,3.24953963 3.36168161,4.03387143 3.36168161,4.03387143 C3.36168161,4.03387143 3.72362679,5.34497742 4.83471432,5.72230461 L4.83471432,5.72230461 Z M4.83471432,0.104793088 L4.83471432,1.27069171 C4.91047029,1.27069171 4.98622626,1.26009263 5.06303439,1.2569129 C8.00909982,1.15728157 9.93035535,3.69470092 9.93035535,3.69470092 C9.93035535,3.69470092 7.72080628,6.39640599 5.42708391,6.39640599 C5.22854014,6.39619401 5.03020681,6.37849355 4.83471432,6.3434106 L4.83471432,7.06414793 C4.99832617,7.08555806 5.1630954,7.09658111 5.32818028,7.09700507 C7.46618205,7.09700507 9.01076207,5.99682074 10.5100989,4.69419401 C10.7584102,4.89451659 11.7726984,5.38207419 11.9831317,5.59511567 C10.5584986,6.79599124 7.24101848,7.7636871 5.35448444,7.7636871 C5.17351185,7.7636871 4.99885225,7.75308802 4.82840133,7.73612949 L4.82840133,8.74940138 L12.9553332,8.74940138 L12.9553332,0.100553456 L4.83471432,0.104793088 Z M4.83997515,2.67930922 L4.83997515,1.89921705 C4.91467896,1.89921705 4.99043492,1.88967788 5.06829523,1.88649816 C7.187358,1.81972396 8.57832175,3.72119862 8.57832175,3.72119862 C8.57832175,3.72119862 7.08108921,5.82299679 5.46601406,5.82299679 C5.25116172,5.82320783 5.03788762,5.78738295 4.83471432,5.71700507 L4.83471432,3.35447051 C5.65961264,3.46046129 5.82480274,3.82188986 6.3214252,4.65497742 L7.42514757,3.71801889 C7.42514757,3.71801889 6.61918824,2.65811106 5.26189381,2.65811106 C5.11911485,2.65895899 4.97654633,2.66743825 4.83471432,2.68354885 L4.83997515,2.67930922 Z" id="Fill-20" fill="#76B900" mask="url(#mask-2)"></path>
                </g>
                <path d="M41.852037,2.77050369 L42.8126647,5.42981244 L40.8556355,5.42981244 L41.852037,2.77050369 Z M40.8198619,1.73603364 L38.598739,7.40442074 L40.1664667,7.40442074 L40.5178902,6.40280783 L43.1483057,6.40280783 L43.4807903,7.40442074 L45.1831952,7.40442074 L42.9420812,1.73603364 L40.8198619,1.73603364 Z M36.3607814,7.40654055 L37.9516568,7.40654055 L37.9516568,1.73391382 L36.3586771,1.73391382 L36.3607814,7.40654055 Z M25.3130361,1.73391382 L23.9862545,6.23004286 L22.7141855,1.73391382 L20.9981024,1.73391382 L22.8141413,7.40654055 L25.1057593,7.40654055 L26.9365286,1.73391382 L25.3130361,1.73391382 Z M31.7449282,2.962347 L32.4288363,2.962347 C33.4199768,2.962347 34.0617982,3.41174793 34.0617982,4.57552673 C34.0617982,5.73930553 33.4199768,6.18976636 32.4288363,6.18976636 L31.7449282,6.18976636 L31.7449282,2.962347 Z M30.1666789,1.72755438 L30.1666789,7.40018111 L32.7465905,7.40018111 C34.1207195,7.40018111 34.5689424,7.17018111 35.0550431,6.65824562 C35.3969972,6.29575714 35.6190042,5.49976636 35.6190042,4.63064194 C35.6190042,3.83359124 35.4317187,3.12133318 35.104495,2.67829171 C34.5152819,1.88654055 33.6661837,1.73179401 32.3993756,1.73179401 L30.1666789,1.72755438 Z M15.0954499,1.72649447 L15.0954499,7.40654055 L16.7000034,7.40654055 L16.7000034,3.09801521 L17.9436638,3.09801521 C18.3550608,3.09801521 18.6486152,3.20400599 18.8464225,3.41598756 C19.0978902,3.68626406 19.2010025,4.12188618 19.2010025,4.91893687 L19.2010025,7.4129 L20.7592607,7.4129 L20.7592607,4.26391382 C20.7592607,2.02432857 19.3419927,1.72013502 17.9562898,1.72013502 L15.0954499,1.72013502 L15.0954499,1.72649447 Z M27.6067584,7.40654055 L29.1976338,7.40654055 L29.1976338,1.73391382 L27.6067584,1.73391382 L27.6067584,7.40654055 Z" id="Fill-23" fill="#FFFFFF"></path>
                <path d="M46.3153156,6.80767143 L46.1848469,6.80767143 L46.1848469,7.02707235 L46.3153156,7.02707235 C46.3753943,7.02707235 46.4242148,6.97789263 46.4242148,6.91737189 C46.4242148,6.85674516 46.3753943,6.80767143 46.3153156,6.80767143 L46.3153156,6.80767143 Z M46.425793,7.49449171 L46.2742811,7.16804009 L46.1848469,7.16804009 L46.1848469,7.49449171 L45.9975614,7.49449171 L45.9975614,6.64656544 L46.3395154,6.64656544 C46.4857665,6.63957005 46.6100273,6.75329816 46.6169716,6.90062535 C46.6171821,6.90422903 46.6172873,6.90793871 46.6172873,6.9115424 C46.6178134,7.01149171 46.555946,7.10115991 46.4626188,7.13518295 L46.6393828,7.49025207 L46.425793,7.49449171 Z M46.2848027,6.43458387 C45.9361149,6.43045023 45.6502413,6.71185576 45.6461378,7.06310922 C45.6421396,7.41425668 45.9213845,7.70223364 46.2700724,7.70636728 C46.6186551,7.71050092 46.9046339,7.42909539 46.9086321,7.07794793 C46.9087373,7.07540415 46.9087373,7.07296636 46.9087373,7.07052857 C46.9145242,6.7275424 46.6432758,6.44475899 46.3027948,6.43892949 C46.2967974,6.4388235 46.2908001,6.4388235 46.2848027,6.4388235 L46.2848027,6.43458387 Z M46.2848027,7.86757926 C45.8501529,7.86757926 45.4977824,7.51261613 45.4977824,7.0747682 C45.4977824,6.63692028 45.8501529,6.28195714 46.2848027,6.28195714 C46.7194526,6.28195714 47.0718231,6.63692028 47.0718231,7.0747682 C47.0718231,7.51261613 46.7194526,7.86757926 46.2848027,7.86757926 L46.2848027,7.86757926 Z" id="Fill-25" fill="#FFFFFF"></path>
                <path d="M118.755887,11.6101244 L118.93686,11.6101244 L118.93686,12.9880046 L118.764304,12.9880046 L118.764304,11.9174977 L118.366585,12.6032581 L118.217178,12.6032581 L117.843659,11.9502488 L117.843659,12.9880046 L117.663738,12.9880046 L117.663738,11.6101244 L117.832085,11.6101244 L118.290829,12.408235 L118.755887,11.6101244 Z M117.453305,11.6101244 L117.453305,11.7680507 L117.011395,11.7680507 L117.011395,12.983659 L116.833579,12.983659 L116.833579,11.7680507 L116.412713,11.7680507 L116.412713,11.6101244 L117.453305,11.6101244 Z" id="Fill-27" fill="#FFFFFF"></path>
            </g>
        </g>
    </g>
</svg>