<svg width="70" height="28" viewBox="0 0 70 28" fill="none" xmlns="http://www.w3.org/2000/svg">
<rect width="70" height="28" fill="#191919"/>
<path fill-rule="evenodd" clip-rule="evenodd" d="M69.5 0.5H0.5V27.5H69.5V0.5ZM0 0V28H70V0H0Z" fill="white" fill-opacity="0.7"/>
<path fill-rule="evenodd" clip-rule="evenodd" d="M20.8333 11.3333L18.8333 11.3333L18.8333 10.14C18.8333 8.39997 17.56 6.84664 15.8267 6.67997C13.84 6.4933 12.1667 8.0533 12.1667 9.99997L12.1667 11.3333L10.1667 11.3333L10.1667 20.6666L20.8333 20.6666L20.8333 11.3333ZM15.5 17.3333C14.7667 17.3333 14.1667 16.7333 14.1667 16C14.1667 15.2666 14.7667 14.6666 15.5 14.6666C16.2333 14.6666 16.8333 15.2666 16.8333 16C16.8333 16.7333 16.2333 17.3333 15.5 17.3333ZM13.5 11.3333L13.5 9.99997C13.5 8.8933 14.3933 7.99997 15.5 7.99997C16.6067 7.99997 17.5 8.8933 17.5 9.99997L17.5 11.3333L13.5 11.3333Z" fill="white" fill-opacity="0.9"/>
<path d="M32.662 19V9.2H36.372C37.5107 9.2 38.4113 9.466 39.074 9.998C39.746 10.53 40.082 11.2673 40.082 12.21V12.476C40.082 13.1387 39.9187 13.6987 39.592 14.156C39.2747 14.6133 38.8267 14.9587 38.248 15.192L40.39 19H38.164L36.232 15.5H34.706V19H32.662ZM34.706 13.736H36.316C36.8107 13.736 37.2213 13.6427 37.548 13.456C37.8747 13.2693 38.038 12.9567 38.038 12.518V12.168C38.038 11.748 37.8747 11.4447 37.548 11.258C37.2213 11.062 36.8107 10.964 36.316 10.964H34.706V13.736ZM43.7965 19V10.964H40.8565V9.2H48.7805V10.964H45.8405V19H43.7965ZM56.095 19L53.869 15.598L51.643 19H49.277L52.651 14.03L49.389 9.2H51.811L53.925 12.434L56.039 9.2H58.405L55.143 14.03L58.517 19H56.095Z" fill="white" fill-opacity="0.9"/>
</svg>
